<?xml version="1.0" encoding="UTF-8"?>
<svg id="Layer_1" xmlns="http://www.w3.org/2000/svg" version="1.1" viewBox="0 0 600 600">
  <!-- Generator: Adobe Illustrator 30.2.1, SVG Export Plug-In . SVG Version: 2.1.1 Build 1)  -->
  <defs>
    <style>
      .st0 {
        fill: #fff;
      }
    </style>
  </defs>
  <path id="Path_52" class="st0" d="M153.12,425.47v95.41h-17.37v-82.27c0-13.13,17.37-13.13,17.37-13.13"/>
  <path id="Path_53" class="st0" d="M338.53,506.01h30.38l-.14,14.87h-54.44s2.67-14.05,24.19-14.87M307.64,520.88l-8.48-17.53c14.23-18.3,36.12-46.87,50.47-64.04h-47.03v-13.84h63.3l4.25,14.11-51.56,66.43-10.95,14.87h0Z"/>
  <path id="Path_54" class="st0" d="M233.61,506.01h30.38l-.13,14.87h-54.45s2.66-14.05,24.19-14.87M202.7,520.88l-8.47-17.53c14.22-18.3,36.12-46.87,50.46-64.04h-47.01v-13.84h63.3l4.25,14.11-51.56,66.43-10.97,14.87h0Z"/>
  <path id="Path_55" class="st0" d="M469.22,520.88h-59.2v-95.41h17.23v81.06h22.86c17.8,0,19.11,14.35,19.11,14.35"/>
  <path id="Path_56" class="st0" d="M506.77,471.21c-2.57-3.86-3.82-8.45-3.55-13.08v-32.65h63.17v14.75h-45.94v18.79c0,5.09,2.19,6.23,6.95,6.23,7.66.11,32.7,0,33.91,0v14.09h-35.95c-9.06,0-14.49-2.8-18.59-8.13M520.45,480.95v25.05h44.58l1.92,14.87h-63.72v-26.88c0-12.6,17.23-13.04,17.23-13.04"/>
  <path id="Path_57" class="st0" d="M67.45,522.6c-13.49,0-32.3-6.84-34.4-7.62l6.1-14.18c4.9,1.82,19.54,6.53,28.3,6.53,7.47.26,13.75-5.57,14.05-13.05.14-5.4-3.24-10.25-8.35-11.99-5.26-1.47-7.15-1.95-15.21-3.97-11.86-2.96-23.89-13.24-23.89-27.13,0-14.77,13.23-26.34,30.12-26.34,9.76.1,19.4,2.03,28.45,5.68l-7.02,13.81c-6.83-2.69-14.09-4.12-21.43-4.23-7.81,0-13.68,4.75-13.68,11.06,0,5.92,5.96,10.94,11.72,12.38,8.11,2.03,10.22,2.55,15.7,4.09,11.87,3.4,20.04,14.25,20.03,26.6,0,15.61-13.67,28.32-30.48,28.32"/>
  <path id="Path_58" class="st0" d="M184.23,263.99c-57.4-51.56-62.13-139.89-10.57-197.29,3.34-3.71,6.86-7.23,10.57-10.57,30.48-27.99,70.46-43.38,111.85-43.04,41.39-.34,81.38,15.05,111.87,43.04l8.56,7.94-55.7,51.75-8.55-7.94c-31.92-28.78-80.43-28.78-112.34,0-27.6,24.81-31.07,66.84-7.91,95.83l21.9-20.34c-11.43-17.84-8.27-41.32,7.48-55.5,19.71-17.77,49.67-17.77,69.37,0l-17.12,15.89c-10-9.02-25.18-9.02-35.17,0-9.02,8.13-9.74,22.04-1.61,31.07.51.56,1.04,1.1,1.61,1.61l8.55,7.94-55.66,51.7-8.55-7.94c-37.61-33.89-40.62-91.83-6.73-129.44,2.12-2.36,4.37-4.61,6.73-6.73,38.37-34.53,95.63-37.64,137.52-7.46l21.62-20.08c-24.6-18.93-54.81-29.09-85.86-28.89-35.07-.27-68.93,12.77-94.75,36.5-48.62,43.67-52.63,118.49-8.96,167.1,2.82,3.15,5.82,6.13,8.96,8.96l-17.1,15.9-.02-.02h.01Z"/>
  <path id="Path_59" class="st0" d="M291.83,377.1c-41.39.33-81.38-15.06-111.87-43.05l-8.55-7.94,55.68-51.74,8.55,7.93c31.93,28.78,80.45,28.78,112.37,0,14.75-13.36,23.19-32.29,23.27-52.18,0-15.87-5.43-31.27-15.35-43.66l-21.9,20.35c4.49,6.93,6.9,15.02,6.9,23.27-.06,12.29-5.27,23.98-14.38,32.23-19.7,17.78-49.67,17.78-69.37,0l17.12-15.88c10,9.01,25.17,9.01,35.17,0,9.02-8.06,9.79-21.91,1.73-30.93-.54-.61-1.12-1.19-1.73-1.73l-8.57-7.95,55.71-51.75,8.55,7.93c37.59,33.79,40.69,91.65,6.91,129.25-2.18,2.43-4.48,4.73-6.91,6.91-38.37,34.52-95.61,37.63-137.5,7.48l-21.63,20.12c24.6,18.91,54.8,29.08,85.84,28.87,35.07.28,68.93-12.75,94.77-36.47,48.62-43.7,52.61-118.56,8.91-167.18-2.81-3.12-5.78-6.1-8.91-8.91l17.12-15.88c57.4,51.57,62.13,139.9,10.56,197.29-3.32,3.71-6.85,7.23-10.56,10.56-30.5,28-70.48,43.39-111.87,43.05"/>
  <g>
    <path class="st0" d="M71.59,586.39h-6.51l-10.43-13.75-4.76,4.89v8.86h-5.37v-30.56h5.37v15.37l14.54-15.37h6.59l-12.7,13.14,13.27,17.42Z"/>
    <path class="st0" d="M93.48,586.92c-9.39,0-15.94-7.12-15.94-15.76s6.64-15.85,16.02-15.85,15.93,7.12,15.93,15.76-6.63,15.85-16.02,15.85ZM93.48,560.24c-6.07,0-10.3,4.84-10.3,10.83s4.32,10.91,10.39,10.91,10.3-4.84,10.3-10.83-4.32-10.91-10.39-10.91Z"/>
    <path class="st0" d="M140.25,586.39l-7.51-10.65h-6.72v10.65h-5.37v-30.56h13.62c7.03,0,11.35,3.71,11.35,9.69,0,5.06-3.01,8.12-7.29,9.3l8.25,11.57h-6.33ZM133.83,560.72h-7.81v10.26h7.86c3.84,0,6.29-2.01,6.29-5.15,0-3.36-2.36-5.11-6.33-5.11Z"/>
    <path class="st0" d="M179.53,560.64h-17.29v7.95h15.32v4.8h-15.32v8.21h17.51v4.8h-22.88v-30.56h22.66v4.8Z"/>
    <path class="st0" d="M220.41,586.39h-5.68l-3.1-7.38h-14.45l-3.14,7.38h-5.5l13.45-30.78h4.98l13.45,30.78ZM204.38,562.03l-5.24,12.22h10.52l-5.28-12.22Z"/>
    <path class="st0" d="M251.3,555.83h5.28v30.56h-4.5l-16.85-21.74v21.74h-5.28v-30.56h4.98l16.37,21.13v-21.13Z"/>
    <path class="st0" d="M310.02,563.65c0,3.75-2.1,5.68-4.36,6.85,3.58,1.22,6.07,3.28,6.07,7.47,0,5.5-4.5,8.43-11.31,8.43h-14.14v-30.56h13.71c6.16,0,10.04,3.01,10.04,7.82ZM304.65,564.52c0-2.49-1.92-3.93-5.37-3.93h-7.73v8.12h7.33c3.45,0,5.77-1.35,5.77-4.19ZM306.35,577.4c0-2.62-2.05-4.15-6.29-4.15h-8.51v8.38h8.91c3.67,0,5.89-1.44,5.89-4.23Z"/>
    <path class="st0" d="M350.98,586.39h-5.68l-3.1-7.38h-14.45l-3.14,7.38h-5.5l13.45-30.78h4.97l13.45,30.78ZM334.95,562.03l-5.24,12.22h10.52l-5.28-12.22Z"/>
    <path class="st0" d="M380.12,586.39l-7.51-10.65h-6.72v10.65h-5.37v-30.56h13.62c7.03,0,11.35,3.71,11.35,9.69,0,5.06-3.01,8.12-7.29,9.3l8.25,11.57h-6.33ZM373.7,560.72h-7.81v10.26h7.86c3.84,0,6.29-2.01,6.29-5.15,0-3.36-2.36-5.11-6.33-5.11Z"/>
    <path class="st0" d="M420.5,563.65c0,3.75-2.1,5.68-4.36,6.85,3.58,1.22,6.07,3.28,6.07,7.47,0,5.5-4.5,8.43-11.31,8.43h-14.14v-30.56h13.71c6.16,0,10.04,3.01,10.04,7.82ZM415.13,564.52c0-2.49-1.92-3.93-5.37-3.93h-7.73v8.12h7.33c3.45,0,5.77-1.35,5.77-4.19ZM416.84,577.4c0-2.62-2.05-4.15-6.29-4.15h-8.51v8.38h8.91c3.67,0,5.89-1.44,5.89-4.23Z"/>
    <path class="st0" d="M455.85,560.64h-17.29v7.95h15.32v4.8h-15.32v8.21h17.51v4.8h-22.88v-30.56h22.66v4.8Z"/>
    <path class="st0" d="M480.62,586.92c-8.91,0-15.54-6.94-15.54-15.76s6.51-15.85,15.76-15.85c5.63,0,9.04,1.97,11.96,4.76l-3.45,3.97c-2.44-2.27-5.06-3.8-8.56-3.8-5.85,0-10.08,4.8-10.08,10.83s4.23,10.91,10.08,10.91c3.76,0,6.16-1.53,8.78-3.97l3.45,3.49c-3.18,3.32-6.68,5.41-12.4,5.41Z"/>
    <path class="st0" d="M528.54,573.16c0,9.13-5.15,13.71-13.14,13.71s-13.01-4.58-13.01-13.45v-17.59h5.37v17.38c0,5.67,2.93,8.73,7.73,8.73s7.68-2.88,7.68-8.51v-17.59h5.37v17.33Z"/>
    <path class="st0" d="M563.52,560.64h-17.29v7.95h15.32v4.8h-15.32v8.21h17.51v4.8h-22.88v-30.56h22.66v4.8Z"/>
  </g>
</svg>