<?xml version="1.0" encoding="UTF-8"?>
<svg id="Layer_1" data-name="Layer 1" xmlns="http://www.w3.org/2000/svg" viewBox="0 0 600 600">
  <defs>
    <style>
      .cls-1 {
        fill: #fff;
      }
    </style>
  </defs>
  <path class="cls-1" d="M90.14,467.28v35.72c0,9.24-2.7,16.13-8.11,20.65-2.67,2.23-5.27,3.69-7.81,4.37s-5.11,1.02-7.72,1.02c-3.45,0-6.68-.65-9.67-1.95-3-1.3-5.41-3.22-7.23-5.77l1.76-1.02c1.69,2.29,3.84,4.02,6.45,5.16,2.61,1.15,5.5,1.72,8.7,1.72s6.02-.71,8.89-2.14,5.23-3.74,7.08-6.93c1.86-3.19,2.79-7.33,2.79-12.42v-38.42h4.88Z"/>
  <path class="cls-1" d="M160.29,467.28v61.21h-4.88v-61.21h4.88Z"/>
  <path class="cls-1" d="M275.16,467.28v61.21h-1.95l-45.32-53.86v53.86h-1.96v-61.21h1.96l45.32,53.86v-53.86h1.95Z"/>
  <path class="cls-1" d="M366.73,467.28v35.72c0,9.24-2.7,16.13-8.11,20.65-2.67,2.23-5.27,3.69-7.81,4.37s-5.11,1.02-7.72,1.02c-3.45,0-6.68-.65-9.67-1.95-3-1.3-5.41-3.22-7.23-5.77l1.76-1.02c1.69,2.29,3.84,4.02,6.45,5.16,2.61,1.15,5.5,1.72,8.7,1.72s6.02-.71,8.89-2.14,5.23-3.74,7.08-6.93c1.86-3.19,2.79-7.33,2.79-12.42v-38.42h4.88Z"/>
  <path class="cls-1" d="M436.88,467.28v61.21h-4.88v-61.21h4.88Z"/>
  <path class="cls-1" d="M518.44,466.73l28.33,61.77h-5.27l-8.21-17.77h-33.89l-8.6,17.77h-2.15l29.79-61.77ZM500.27,508.87h32.24l-15.73-34.24-16.51,34.24Z"/>
  <g>
    <path class="cls-1" d="M283.3,298.35v-153.73h-25.48v153.73c0,12.34-8,18.79-15.9,18.79h-15.16v-48.59h-23.67v70.43h38.83c25.91,0,41.38-15.19,41.38-40.64Z"/>
    <path class="cls-1" d="M355.48,338.99h38.83v-70.43h-23.67v48.59h-15.16c-7.9,0-15.9-6.45-15.9-18.79v-153.73h-25.48v153.73c0,25.44,15.47,40.64,41.38,40.64Z"/>
    <polygon class="cls-1" points="394.3 237.31 394.3 89 310.09 89 310.09 65.64 287.29 65.64 287.29 89 203.09 89 203.09 237.31 226.76 237.31 226.76 113.64 370.64 113.64 370.64 237.31 394.3 237.31"/>
    <rect class="cls-1" x="203.09" y="367.59" width="191.22" height="24.47"/>
  </g>
</svg>
