<?xml version="1.0" encoding="UTF-8"?>
<svg id="Layer_1" xmlns="http://www.w3.org/2000/svg" version="1.1" viewBox="0 0 600 279">
  <!-- Generator: Adobe Illustrator 30.2.1, SVG Export Plug-In . SVG Version: 2.1.1 Build 1)  -->
  <defs>
    <style>
      .st0 {
        fill: #fff;
      }
    </style>
  </defs>
  <g>
    <path class="st0" d="M174.51,25.16l-150.22.14h-.39l.16,156.93v.38l150.21-.14h.39l-.15-156.93v-.38h0ZM132.65,158.38v10.25l-66.32.06v-10.25l66.32-.06ZM152.56,158.37v-13.96l-106.06.1h-.39v13.96h5.9v10.25h-13.62s-.13-129.55-.13-129.55l53.93-.05v5.83l-46.18.04.02,13.96,46.18-.04v4.94l-46.18.04.08,75.59v.38l106.04-.1h.39l-.08-75.59v-.38l-46.18.04v-4.94l46.18-.04-.02-13.96-46.18.04v-5.83l53.92-.05.13,129.56h-13.34v-10.23s5.59,0,5.59,0h0ZM60.27,98.23l76.86-.07v7.1l-76.85.07v-7.09h-.01ZM60.29,119.28l76.86-.07v6.61l-76.85.07v-6.61h0ZM60.25,77.83l76.86-.07v6.44l-76.85.07v-6.44h-.01Z"/>
    <path class="st0" d="M237.35,126.65c-.19-2.31-.53-4.42-1.03-6.27-.5-1.84-1.19-3.59-2.06-5.19-.87-1.59-2-3.21-3.36-4.81-3.94-4.63-7.89-8.75-11.74-12.26-3.84-3.5-7.63-7.6-11.29-12.18-1.31-1.65-2.19-3.21-2.61-4.62-.42-1.41-.63-3.71-.64-6.84l-.02-22.29c0-7,3.05-10.4,9.34-10.41h0c3.61,0,6.06,1.1,7.27,3.26,1.25,2.25,1.89,5.26,1.9,8.96l.03,25.95h13.89l-.03-27.79c0-8.45-1.78-14.83-5.26-18.95-3.5-4.15-9.6-6.25-18.14-6.25h-.04c-7.94,0-13.99,2.15-17.98,6.36-3.97,4.2-5.98,10.55-5.97,18.89l.02,22.47c0,4.29.23,7.96.66,10.92.44,3.04,1.92,6.02,4.41,8.85,2.22,2.68,4.37,5.12,6.38,7.23,2.03,2.14,4.05,4.17,6,6.04,1.99,1.91,3.9,3.81,5.7,5.65,1.83,1.87,3.68,3.92,5.5,6.08.85,1.08,1.59,2.09,2.2,2.99.6.89,1.08,1.87,1.43,2.93.36,1.07.6,2.33.72,3.75.12,1.46.19,3.35.19,5.63l.02,21.37c0,3.56-.74,6.28-2.21,8.09-1.44,1.78-3.9,2.68-7.31,2.69h0c-3.55,0-5.92-1.13-7.27-3.45-1.38-2.37-2.08-5.5-2.08-9.32l-.03-30.34h-14.26l.04,32.36c0,8.09,1.93,14.38,5.73,18.68,3.8,4.33,9.93,6.52,18.23,6.52h.04c8.56,0,14.77-2.21,18.45-6.56,3.65-4.32,5.5-10.6,5.5-18.69l-.02-21.56c0-2.9-.1-5.56-.29-7.88h0Z"/>
    <polygon class="st0" points="298.1 26.86 282.98 26.88 283.06 95.39 263.93 95.4 263.86 27.27 263.86 26.89 248.74 26.91 248.9 180.92 248.9 181.3 264.02 181.28 263.95 110.16 283.07 110.14 283.15 180.89 283.15 181.27 298.26 181.26 298.1 27.24 298.1 26.86"/>
    <polygon class="st0" points="326.7 26.84 311.58 26.85 311.74 180.86 311.74 181.24 326.86 181.23 326.7 27.22 326.7 26.84"/>
    <path class="st0" d="M393.86,26.78h-13.43l.05,50.79c0,10.58.02,20.94.03,31.08,0,8.7.06,17.74.17,26.93l-22.95-108.46-.07-.31h-17.87l.16,154.03v.38h13.24l-.05-44.44c0-11.7-.02-23.06-.04-34.07,0-9.57-.07-19.79-.18-30.43l25.98,108.61.07.3h15.04l-.16-154.03v-.38h0Z"/>
    <path class="st0" d="M453.49,105.73c-1.99-2.24-4.29-3.77-6.87-4.56,5.62-2.17,8.46-7.87,8.45-16.95l-.04-30.8c0-9.38-1.82-16.24-5.38-20.39-3.58-4.17-9.62-6.29-17.97-6.29h-.03l-25.07.02.16,154.01v.38l25.06-.02c8.36,0,14.72-2.13,18.92-6.3,4.19-4.16,6.31-10.91,6.3-20.05l-.04-36.59c0-5.66-1.18-9.86-3.49-12.46h0ZM431.91,108.7h.02c3.83,0,6.4.91,7.63,2.71,1.27,1.86,1.92,4.97,1.92,9.22l.04,34.16c0,3.88-.82,6.81-2.44,8.73-1.6,1.89-4.05,2.84-7.29,2.85h-9.94l-.06-57.66h10.13-.01ZM438.82,93.14c-1.35,1.52-3.68,2.29-6.93,2.3h-10.12l-.06-53.56h9.97c3.35,0,5.73.83,7.08,2.46,1.38,1.67,2.09,4.67,2.09,8.92l.04,32.29c0,3.5-.69,6.06-2.06,7.6h-.01Z"/>
    <path class="st0" d="M499.92,26.68h-17.47l-21.15,154-.06.43h14.75l3.36-25.78,22.41-.02,3.37,25.42.04.33h15.12l-20.35-154.05-.04-.33h.02ZM490.74,66.66c1.39,12.29,2.85,24.44,4.35,36.15,1.62,12.74,3.25,25.64,4.88,38.68l-18.83.02c1.72-13.05,3.42-25.95,5.07-38.69,1.53-11.72,3.05-23.87,4.53-36.16h0Z"/>
    <path class="st0" d="M576.09,26.61h-14.77l-.08.3c-1.36,5.04-2.84,10.73-4.4,16.9-1.54,6.06-3.05,12.18-4.5,18.21-1.43,5.95-2.72,11.51-3.84,16.53-.88,3.93-1.55,7.09-2.04,9.56-.5-2.53-1.19-5.73-2.05-9.56-1.08-4.84-2.35-10.24-3.87-16.52-1.63-6.73-3.05-12.69-4.34-18.19-1.39-5.9-2.76-11.58-4.06-16.9l-.07-.29h-15.9l22.02,85.12.07,68.88v.38h15.31l-.09-69.18,22.49-84.77.13-.47h0Z"/>
  </g>
  <g>
    <path class="st0" d="M118.54,235.66c0-8.76,6.2-15.18,15.01-15.18s15,6.42,15,15.18-6.25,15.18-15,15.18-15.01-6.42-15.01-15.18ZM143.27,235.66c0-6.07-3.83-10.6-9.73-10.6s-9.73,4.53-9.73,10.6,3.79,10.6,9.73,10.6,9.73-4.57,9.73-10.6Z"/>
    <path class="st0" d="M180.3,250.31v-22.66l-8.98,22.66h-2.2l-9.03-22.66v22.66h-5.15v-29.35h7.27l8.01,20.15,7.96-20.15h7.26v29.35h-5.15,0Z"/>
    <path class="st0" d="M213.78,250.31l-2.16-5.68h-13.46l-2.16,5.68h-5.85l11.53-29.35h6.42l11.54,29.35h-5.86ZM204.88,226.11l-5.28,13.99h10.57l-5.28-13.99h-.01Z"/>
    <path class="st0" d="M241.84,250.31l-9.82-12.41-2.6,3.04v9.37h-5.15v-29.35h5.15v13.95l11.49-13.95h6.38l-11.92,13.82,12.85,15.53h-6.38Z"/>
    <path class="st0" d="M273.68,250.31l-2.16-5.68h-13.46l-2.16,5.68h-5.85l11.53-29.35h6.42l11.53,29.35h-5.85ZM264.79,226.11l-5.28,13.99h10.57l-5.28-13.99h-.01Z"/>
    <path class="st0" d="M282.29,246.18l2.9-4.01c1.98,2.16,5.19,4.09,9.28,4.09s5.85-2.07,5.85-4.04c0-6.16-17.07-2.33-17.07-13.12,0-4.88,4.22-8.62,10.69-8.62,4.53,0,8.28,1.5,10.96,4.14l-2.9,3.83c-2.33-2.33-5.46-3.39-8.54-3.39s-4.93,1.49-4.93,3.65c0,5.5,17.08,2.11,17.08,13.03,0,4.88-3.48,9.11-11.35,9.11-5.42,0-9.33-1.93-11.97-4.66h0Z"/>
    <path class="st0" d="M311.8,250.31v-29.35h20.11v4.53h-14.97v7.57h14.66v4.53h-14.66v8.19h14.97v4.53h-20.11Z"/>
    <path class="st0" d="M368.29,250.31l-6.47-10.96h-5.15v10.96h-5.15v-29.35h12.9c5.8,0,9.63,3.74,9.63,9.2s-3.43,8.05-7,8.62l7.22,11.53h-5.98ZM368.78,230.11c0-2.82-2.12-4.62-5.02-4.62h-7.09v9.33h7.09c2.9,0,5.02-1.85,5.02-4.71Z"/>
    <path class="st0" d="M379.41,235.66c0-8.76,6.2-15.18,15.01-15.18s15,6.42,15,15.18-6.25,15.18-15,15.18-15.01-6.42-15.01-15.18ZM404.14,235.66c0-6.07-3.83-10.6-9.73-10.6s-9.73,4.53-9.73,10.6,3.79,10.6,9.73,10.6,9.73-4.57,9.73-10.6Z"/>
    <path class="st0" d="M414.55,235.66c0-8.76,6.2-15.18,15.01-15.18s15,6.42,15,15.18-6.25,15.18-15,15.18-15.01-6.42-15.01-15.18ZM439.28,235.66c0-6.07-3.83-10.6-9.73-10.6s-9.73,4.53-9.73,10.6,3.79,10.6,9.73,10.6,9.73-4.57,9.73-10.6Z"/>
    <path class="st0" d="M476.32,250.31v-22.66l-8.98,22.66h-2.2l-9.03-22.66v22.66h-5.15v-29.35h7.27l8.01,20.15,7.96-20.15h7.26v29.35h-5.15.01Z"/>
  </g>
</svg>