<?xml version="1.0" encoding="UTF-8"?>
<svg id="Layer_1" data-name="Layer 1" xmlns="http://www.w3.org/2000/svg" viewBox="0 0 600 600">
  <defs>
    <style>
      .cls-1 {
        fill: #fff;
      }
    </style>
  </defs>
  <path id="Path_52" data-name="Path 52" class="cls-1" d="M155.95,450.04v95.41h-17.37v-82.27c0-13.13,17.37-13.13,17.37-13.13"/>
  <path id="Path_53" data-name="Path 53" class="cls-1" d="M341.36,530.58h30.38l-.14,14.87h-54.44s2.67-14.05,24.19-14.87M310.47,545.45l-8.48-17.53c14.23-18.3,36.12-46.87,50.47-64.04h-47.03v-13.84h63.3l4.25,14.11-51.56,66.43-10.95,14.87Z"/>
  <path id="Path_54" data-name="Path 54" class="cls-1" d="M236.44,530.58h30.38l-.13,14.87h-54.45s2.66-14.05,24.19-14.87M205.53,545.45l-8.47-17.53c14.22-18.3,36.12-46.87,50.46-64.04h-47.01v-13.84h63.3l4.25,14.11-51.56,66.43-10.97,14.87Z"/>
  <path id="Path_55" data-name="Path 55" class="cls-1" d="M472.05,545.45h-59.2v-95.41h17.23v81.06h22.86c17.8,0,19.11,14.35,19.11,14.35"/>
  <path id="Path_56" data-name="Path 56" class="cls-1" d="M509.6,495.78c-2.57-3.86-3.82-8.45-3.55-13.08v-32.65h63.17v14.75h-45.94v18.79c0,5.09,2.19,6.23,6.95,6.23,7.66.11,32.7,0,33.91,0v14.09h-35.95c-9.06,0-14.49-2.8-18.59-8.13M523.28,505.52v25.05h44.58l1.92,14.87h-63.72v-26.88c0-12.6,17.23-13.04,17.23-13.04"/>
  <path id="Path_57" data-name="Path 57" class="cls-1" d="M70.28,547.17c-13.49,0-32.3-6.84-34.4-7.62l6.1-14.18c4.9,1.82,19.54,6.53,28.3,6.53,7.47.26,13.75-5.57,14.05-13.05.14-5.4-3.24-10.25-8.35-11.99-5.26-1.47-7.15-1.95-15.21-3.97-11.86-2.96-23.89-13.24-23.89-27.13,0-14.77,13.23-26.34,30.12-26.34,9.76.1,19.4,2.03,28.45,5.68l-7.02,13.81c-6.83-2.69-14.09-4.12-21.43-4.23-7.81,0-13.68,4.75-13.68,11.06,0,5.92,5.96,10.94,11.72,12.38,8.11,2.03,10.22,2.55,15.7,4.09,11.87,3.4,20.04,14.25,20.03,26.6,0,15.61-13.67,28.32-30.48,28.32"/>
  <path id="Path_58" data-name="Path 58" class="cls-1" d="M187.06,288.56c-57.4-51.56-62.13-139.89-10.57-197.29,3.34-3.71,6.86-7.23,10.57-10.57,30.48-27.99,70.46-43.38,111.85-43.04,41.39-.34,81.38,15.05,111.87,43.04l8.56,7.94-55.7,51.75-8.55-7.94c-31.92-28.78-80.43-28.78-112.34,0-27.6,24.81-31.07,66.84-7.91,95.83l21.9-20.34c-11.43-17.84-8.27-41.32,7.48-55.5,19.71-17.77,49.67-17.77,69.37,0l-17.12,15.89c-10-9.02-25.18-9.02-35.17,0-9.02,8.13-9.74,22.04-1.61,31.07.51.56,1.04,1.1,1.61,1.61l8.55,7.94-55.66,51.7-8.55-7.94c-37.61-33.89-40.62-91.83-6.73-129.44,2.12-2.36,4.37-4.61,6.73-6.73,38.37-34.53,95.63-37.64,137.52-7.46l21.62-20.08c-24.6-18.93-54.81-29.09-85.86-28.89-35.07-.27-68.93,12.77-94.75,36.5-48.62,43.67-52.63,118.49-8.96,167.1,2.82,3.15,5.82,6.13,8.96,8.96l-17.1,15.9-.02-.02Z"/>
  <path id="Path_59" data-name="Path 59" class="cls-1" d="M294.66,401.67c-41.39.33-81.38-15.06-111.87-43.05l-8.55-7.94,55.68-51.74,8.55,7.93c31.93,28.78,80.45,28.78,112.37,0,14.75-13.36,23.19-32.29,23.27-52.18,0-15.87-5.43-31.27-15.35-43.66l-21.9,20.35c4.49,6.93,6.9,15.02,6.9,23.27-.06,12.29-5.27,23.98-14.38,32.23-19.7,17.78-49.67,17.78-69.37,0l17.12-15.88c10,9.01,25.17,9.01,35.17,0,9.02-8.06,9.79-21.91,1.73-30.93-.54-.61-1.12-1.19-1.73-1.73l-8.57-7.95,55.71-51.75,8.55,7.93c37.59,33.79,40.69,91.65,6.91,129.25-2.18,2.43-4.48,4.73-6.91,6.91-38.37,34.52-95.61,37.63-137.5,7.48l-21.63,20.12c24.6,18.91,54.8,29.08,85.84,28.87,35.07.28,68.93-12.75,94.77-36.47,48.62-43.7,52.61-118.56,8.91-167.18-2.81-3.12-5.78-6.1-8.91-8.91l17.12-15.88c57.4,51.57,62.13,139.9,10.56,197.29-3.32,3.71-6.85,7.23-10.56,10.56-30.5,28-70.48,43.39-111.87,43.05"/>
</svg>
